{"title":"Mater &amp; the Ghostlight - DVDrip - yeArr","uid":9525980,"size":83785723,"categoryP":"video","categoryS":"movies_dvdr","magnet":"?xt=urn:btih:b0660891f9e86f32f1c667aa39ae3824425b1719&amp;dn=Mater+%26amp%3B+the+Ghostlight+-+DVDrip+-+yeArr&amp;tr=udp%3A%2F%2Ftracker.openbittorrent.com%3A80&amp;tr=udp%3A%2F%2Fopen.demonii.com%3A1337&amp;tr=udp%3A%2F%2Ftracker.coppersurfer.tk%3A6969&amp;tr=udp%3A%2F%2Fexodus.desync.com%3A6969","seeders":1,"leechers":2,"uploader":"YeArr","files":-1,"time":1390752067,"description":"Mater and the Ghostlight is a &quot;Cars Short&quot; available on the Cars DVD. This is a DVD rip and the only edit that i put in was a 6db volume increase because some of the earlier PIXAR shorts were very quiet. This is available for purchase from various places (but mostly DRM encoded).\n\n\n\nGeneral\nComplete name                            : Cars Toon - Mater &amp; The Ghostlight.mp4\nFormat                                   : MPEG-4\nFormat profile                           : Base Media / Version 2\nCodec ID                                 : mp42\nFile size                                : 79.7 MiB\nDuration                                 : 7mn 8s\nOverall bit rate mode                    : Variable\nOverall bit rate                         : 1 559 Kbps\nEncoded date                             : UTC 2014-01-24 16:46:55\n\nVideo\nFormat                                   : AVC\nFormat/Info                              : Advanced Video Codec\nFormat profile                           : &lt;a class=&quot;__cf_email__&quot; href=&quot;/cdn-cgi/l/email-protection&quot; data-cfemail=&quot;2469454d4a6468170a15&quot;&gt;[email&amp;#160;protected]&lt;/a&gt;&lt;script cf-hash='f9e31' type=&quot;text/javascript&quot;&gt;\n/* &lt;![CDATA[ */!function(){try{var t=&quot;currentScript&quot;in document?document.currentScript:function(){for(var t=document.getElementsByTagName(&quot;script&quot;),e=t.length;e--;)if(t[e].getAttribute(&quot;cf-hash&quot;))return t[e]}();if(t&amp;&amp;t.previousSibling){var e,r,n,i,c=t.previousSibling,a=c.getAttribute(&quot;data-cfemail&quot;);if(a){for(e=&quot;&quot;,r=parseInt(a.substr(0,2),16),n=2;a.length-n;n+=2)i=parseInt(a.substr(n,2),16)^r,e+=String.fromCharCode(i);e=document.createTextNode(e),c.parentNode.replaceChild(e,c)}}}catch(u){}}();/* ]]&gt; */&lt;/script&gt;\nFormat settings, CABAC                   : Yes\nFormat settings, ReFrames                : 4 frames\nCodec ID                                 : avc1\nCodec ID/Info                            : Advanced Video Coding\nDuration                                 : 7mn 8s\nBit rate mode                            : Constant\nBit rate                                 : 1 245 Kbps\nWidth                                    : 720 pixels\nHeight                                   : 480 pixels\nDisplay aspect ratio                     : 16:9\nFrame rate mode                          : Constant\nFrame rate                               : 29.970 fps\nStandard                                 : NTSC\nColor space                              : YUV\nChroma subsampling                       : 4:2:0\nBit depth                                : 8 bits\nScan type                                : Progressive\nBits/(Pixel*Frame)                       : 0.120\nStream size                              : 63.3 MiB (79%)\nLanguage                                 : English\nEncoded date                             : UTC 2014-01-24 16:46:55\n\n\nAudio\nFormat                                   : AAC\nFormat/Info                              : Advanced Audio Codec\nCodec ID                                 : 40\nDuration                                 : 7mn 8s\nSource duration                          : 7mn 8s\nBit rate mode                            : Variable\nBit rate                                 : 317 Kbps\nMaximum bit rate                         : 411 Kbps\nChannel count                            : 2 channels\nChannel positions                        : Front: L R\nSampling rate                            : 48.0 KHz\nCompression mode                         : Lossy\nStream size                              : 16.2 MiB (20%)\nLanguage                                 : English\nEncoded date                             : UTC 2014-01-24 16:46:55\n","torrent":{"xt":"urn:btih:b0660891f9e86f32f1c667aa39ae3824425b1719","amp;dn":"Mater+%26amp%3B+the+Ghostlight+-+DVDrip+-+yeArr","amp;tr":["udp%3A%2F%2Ftracker.openbittorrent.com%3A80","udp%3A%2F%2Fopen.demonii.com%3A1337","udp%3A%2F%2Ftracker.coppersurfer.tk%3A6969","udp%3A%2F%2Fexodus.desync.com%3A6969"],"infoHash":"b0660891f9e86f32f1c667aa39ae3824425b1719","infoHashBuffer":{"type":"Buffer","data":[176,102,8,145,249,232,111,50,241,198,103,170,57,174,56,36,66,91,23,25]},"announce":[],"urlList":[]}}